<mxfile host="app.diagrams.net" modified="2021-03-07T09:43:38.601Z" agent="5.0 (Macintosh; Intel Mac OS X 10_15_4) AppleWebKit/537.36 (KHTML, like Gecko) Chrome/88.0.4324.192 Safari/537.36" etag="Cl7cYZHqHypObe_w-tY6" version="14.1.8" type="github">
  <diagram id="w8Rf89uJ2AWIB7oE1WWO" name="Page-1">
    <mxGraphModel dx="1298" dy="808" grid="1" gridSize="10" guides="1" tooltips="1" connect="1" arrows="1" fold="1" page="1" pageScale="1" pageWidth="827" pageHeight="1169" math="0" shadow="0">
      <root>
        <mxCell id="0" />
        <mxCell id="1" parent="0" />
        <mxCell id="y2q8YL8v0eIlHlnUZHf5-117" value="" style="rounded=0;whiteSpace=wrap;html=1;" vertex="1" parent="1">
          <mxGeometry x="827" y="940" width="543" height="320" as="geometry" />
        </mxCell>
        <mxCell id="y2q8YL8v0eIlHlnUZHf5-43" value="" style="rounded=0;whiteSpace=wrap;html=1;" vertex="1" parent="1">
          <mxGeometry x="20" y="30" width="770" height="560" as="geometry" />
        </mxCell>
        <mxCell id="7yP8y3BCbyHduZ2Azp9H-1" value="" style="rounded=0;whiteSpace=wrap;html=1;" parent="1" vertex="1">
          <mxGeometry x="180" y="40" width="390" height="470" as="geometry" />
        </mxCell>
        <mxCell id="7yP8y3BCbyHduZ2Azp9H-2" value="公共能力" style="ellipse;whiteSpace=wrap;html=1;" parent="1" vertex="1">
          <mxGeometry x="330" y="150" width="120" height="40" as="geometry" />
        </mxCell>
        <mxCell id="7yP8y3BCbyHduZ2Azp9H-3" value="信息流" style="ellipse;whiteSpace=wrap;html=1;" parent="1" vertex="1">
          <mxGeometry x="250" y="290" width="120" height="40" as="geometry" />
        </mxCell>
        <mxCell id="7yP8y3BCbyHduZ2Azp9H-4" value="创作" style="ellipse;whiteSpace=wrap;html=1;" parent="1" vertex="1">
          <mxGeometry x="250" y="370" width="120" height="40" as="geometry" />
        </mxCell>
        <mxCell id="7yP8y3BCbyHduZ2Azp9H-5" value="搜索" style="ellipse;whiteSpace=wrap;html=1;" parent="1" vertex="1">
          <mxGeometry x="250" y="450" width="120" height="40" as="geometry" />
        </mxCell>
        <mxCell id="7yP8y3BCbyHduZ2Azp9H-7" value="事件管理" style="ellipse;whiteSpace=wrap;html=1;" parent="1" vertex="1">
          <mxGeometry x="190" y="125" width="100" height="30" as="geometry" />
        </mxCell>
        <mxCell id="y2q8YL8v0eIlHlnUZHf5-1" value="《包含》" style="endArrow=open;endSize=12;dashed=1;html=1;entryX=1;entryY=0.5;entryDx=0;entryDy=0;" edge="1" parent="1" source="7yP8y3BCbyHduZ2Azp9H-2" target="7yP8y3BCbyHduZ2Azp9H-7">
          <mxGeometry width="160" relative="1" as="geometry">
            <mxPoint x="270" y="170" as="sourcePoint" />
            <mxPoint x="360" y="170.5" as="targetPoint" />
          </mxGeometry>
        </mxCell>
        <mxCell id="y2q8YL8v0eIlHlnUZHf5-2" value="组件曝光" style="ellipse;whiteSpace=wrap;html=1;" vertex="1" parent="1">
          <mxGeometry x="314" y="70" width="100" height="30" as="geometry" />
        </mxCell>
        <mxCell id="y2q8YL8v0eIlHlnUZHf5-3" value="公共状态管理" style="ellipse;whiteSpace=wrap;html=1;" vertex="1" parent="1">
          <mxGeometry x="450" y="70" width="100" height="30" as="geometry" />
        </mxCell>
        <mxCell id="y2q8YL8v0eIlHlnUZHf5-4" value="权限管理" style="ellipse;whiteSpace=wrap;html=1;" vertex="1" parent="1">
          <mxGeometry x="290" y="220" width="100" height="30" as="geometry" />
        </mxCell>
        <mxCell id="y2q8YL8v0eIlHlnUZHf5-5" value="FPS监测" style="ellipse;whiteSpace=wrap;html=1;" vertex="1" parent="1">
          <mxGeometry x="420" y="220" width="100" height="30" as="geometry" />
        </mxCell>
        <mxCell id="y2q8YL8v0eIlHlnUZHf5-8" value="《包含》" style="endArrow=open;endSize=12;dashed=1;html=1;exitX=0.5;exitY=0;exitDx=0;exitDy=0;entryX=0.5;entryY=1;entryDx=0;entryDy=0;" edge="1" parent="1" source="7yP8y3BCbyHduZ2Azp9H-2" target="y2q8YL8v0eIlHlnUZHf5-2">
          <mxGeometry width="160" relative="1" as="geometry">
            <mxPoint x="330" y="200" as="sourcePoint" />
            <mxPoint x="490" y="200" as="targetPoint" />
          </mxGeometry>
        </mxCell>
        <mxCell id="y2q8YL8v0eIlHlnUZHf5-9" value="《包含》" style="endArrow=open;endSize=12;dashed=1;html=1;exitX=1;exitY=0;exitDx=0;exitDy=0;entryX=0.5;entryY=1;entryDx=0;entryDy=0;" edge="1" parent="1" source="7yP8y3BCbyHduZ2Azp9H-2" target="y2q8YL8v0eIlHlnUZHf5-3">
          <mxGeometry width="160" relative="1" as="geometry">
            <mxPoint x="312.42640687119274" y="205.85786437626905" as="sourcePoint" />
            <mxPoint x="380" y="175" as="targetPoint" />
          </mxGeometry>
        </mxCell>
        <mxCell id="y2q8YL8v0eIlHlnUZHf5-18" value="《包含》" style="endArrow=open;endSize=12;dashed=1;html=1;exitX=0.5;exitY=1;exitDx=0;exitDy=0;entryX=0.5;entryY=0;entryDx=0;entryDy=0;" edge="1" parent="1" source="7yP8y3BCbyHduZ2Azp9H-2" target="y2q8YL8v0eIlHlnUZHf5-4">
          <mxGeometry width="160" relative="1" as="geometry">
            <mxPoint x="457.42640687119274" y="165.85786437626894" as="sourcePoint" />
            <mxPoint x="484" y="75" as="targetPoint" />
          </mxGeometry>
        </mxCell>
        <mxCell id="y2q8YL8v0eIlHlnUZHf5-19" value="《包含》" style="endArrow=open;endSize=12;dashed=1;html=1;exitX=1;exitY=1;exitDx=0;exitDy=0;entryX=0.5;entryY=0;entryDx=0;entryDy=0;" edge="1" parent="1" source="7yP8y3BCbyHduZ2Azp9H-2" target="y2q8YL8v0eIlHlnUZHf5-5">
          <mxGeometry width="160" relative="1" as="geometry">
            <mxPoint x="467.42640687119274" y="175.85786437626894" as="sourcePoint" />
            <mxPoint x="494" y="85" as="targetPoint" />
          </mxGeometry>
        </mxCell>
        <mxCell id="y2q8YL8v0eIlHlnUZHf5-20" value="" style="shape=actor;whiteSpace=wrap;html=1;" vertex="1" parent="1">
          <mxGeometry x="605" y="125" width="40" height="60" as="geometry" />
        </mxCell>
        <mxCell id="y2q8YL8v0eIlHlnUZHf5-22" value="" style="endArrow=none;html=1;entryX=0;entryY=0.75;entryDx=0;entryDy=0;exitX=1;exitY=0.5;exitDx=0;exitDy=0;" edge="1" parent="1" source="7yP8y3BCbyHduZ2Azp9H-2" target="y2q8YL8v0eIlHlnUZHf5-20">
          <mxGeometry width="50" height="50" relative="1" as="geometry">
            <mxPoint x="390" y="400" as="sourcePoint" />
            <mxPoint x="440" y="350" as="targetPoint" />
          </mxGeometry>
        </mxCell>
        <mxCell id="y2q8YL8v0eIlHlnUZHf5-23" value="" style="shape=actor;whiteSpace=wrap;html=1;" vertex="1" parent="1">
          <mxGeometry x="90" y="330" width="40" height="60" as="geometry" />
        </mxCell>
        <mxCell id="y2q8YL8v0eIlHlnUZHf5-24" value="" style="endArrow=none;html=1;exitX=1;exitY=0.75;exitDx=0;exitDy=0;entryX=0;entryY=0.5;entryDx=0;entryDy=0;" edge="1" parent="1" source="y2q8YL8v0eIlHlnUZHf5-23" target="7yP8y3BCbyHduZ2Azp9H-3">
          <mxGeometry width="50" height="50" relative="1" as="geometry">
            <mxPoint x="390" y="400" as="sourcePoint" />
            <mxPoint x="440" y="350" as="targetPoint" />
          </mxGeometry>
        </mxCell>
        <mxCell id="y2q8YL8v0eIlHlnUZHf5-25" value="" style="endArrow=none;html=1;exitX=1;exitY=0.75;exitDx=0;exitDy=0;" edge="1" parent="1" source="y2q8YL8v0eIlHlnUZHf5-23" target="7yP8y3BCbyHduZ2Azp9H-4">
          <mxGeometry width="50" height="50" relative="1" as="geometry">
            <mxPoint x="86" y="370" as="sourcePoint" />
            <mxPoint x="260" y="320" as="targetPoint" />
          </mxGeometry>
        </mxCell>
        <mxCell id="y2q8YL8v0eIlHlnUZHf5-26" value="" style="endArrow=none;html=1;exitX=1;exitY=0.75;exitDx=0;exitDy=0;entryX=0;entryY=0.5;entryDx=0;entryDy=0;" edge="1" parent="1" source="y2q8YL8v0eIlHlnUZHf5-23" target="7yP8y3BCbyHduZ2Azp9H-5">
          <mxGeometry width="50" height="50" relative="1" as="geometry">
            <mxPoint x="90" y="385" as="sourcePoint" />
            <mxPoint x="261.1164407083927" y="396.15976787228647" as="targetPoint" />
          </mxGeometry>
        </mxCell>
        <mxCell id="y2q8YL8v0eIlHlnUZHf5-27" value="频道页面交互" style="ellipse;whiteSpace=wrap;html=1;" vertex="1" parent="1">
          <mxGeometry x="440" y="280" width="100" height="30" as="geometry" />
        </mxCell>
        <mxCell id="y2q8YL8v0eIlHlnUZHf5-28" value="图片编辑" style="ellipse;whiteSpace=wrap;html=1;" vertex="1" parent="1">
          <mxGeometry x="450" y="330" width="100" height="30" as="geometry" />
        </mxCell>
        <mxCell id="y2q8YL8v0eIlHlnUZHf5-29" value="标签管理" style="ellipse;whiteSpace=wrap;html=1;" vertex="1" parent="1">
          <mxGeometry x="450" y="370" width="100" height="30" as="geometry" />
        </mxCell>
        <mxCell id="y2q8YL8v0eIlHlnUZHf5-30" value="搜索结果展示" style="ellipse;whiteSpace=wrap;html=1;" vertex="1" parent="1">
          <mxGeometry x="440" y="470" width="100" height="30" as="geometry" />
        </mxCell>
        <mxCell id="y2q8YL8v0eIlHlnUZHf5-31" value="搜索流程管理" style="ellipse;whiteSpace=wrap;html=1;" vertex="1" parent="1">
          <mxGeometry x="440" y="420" width="100" height="30" as="geometry" />
        </mxCell>
        <mxCell id="y2q8YL8v0eIlHlnUZHf5-33" value="《包含》" style="endArrow=open;endSize=12;dashed=1;html=1;exitX=1;exitY=0;exitDx=0;exitDy=0;entryX=0;entryY=0.5;entryDx=0;entryDy=0;" edge="1" parent="1" source="7yP8y3BCbyHduZ2Azp9H-4" target="y2q8YL8v0eIlHlnUZHf5-28">
          <mxGeometry width="160" relative="1" as="geometry">
            <mxPoint x="549.9964068711927" y="240.85786437626894" as="sourcePoint" />
            <mxPoint x="617.5699999999999" y="185" as="targetPoint" />
          </mxGeometry>
        </mxCell>
        <mxCell id="y2q8YL8v0eIlHlnUZHf5-34" value="《包含》" style="endArrow=open;endSize=12;dashed=1;html=1;exitX=1;exitY=0.5;exitDx=0;exitDy=0;entryX=0;entryY=0.5;entryDx=0;entryDy=0;" edge="1" parent="1" source="7yP8y3BCbyHduZ2Azp9H-3" target="y2q8YL8v0eIlHlnUZHf5-27">
          <mxGeometry width="160" relative="1" as="geometry">
            <mxPoint x="559.9964068711927" y="250.85786437626894" as="sourcePoint" />
            <mxPoint x="627.5699999999999" y="195" as="targetPoint" />
          </mxGeometry>
        </mxCell>
        <mxCell id="y2q8YL8v0eIlHlnUZHf5-35" value="《包含》" style="endArrow=open;endSize=12;dashed=1;html=1;entryX=0;entryY=0.5;entryDx=0;entryDy=0;" edge="1" parent="1" target="y2q8YL8v0eIlHlnUZHf5-29">
          <mxGeometry width="160" relative="1" as="geometry">
            <mxPoint x="370" y="390" as="sourcePoint" />
            <mxPoint x="627.5699999999999" y="195" as="targetPoint" />
          </mxGeometry>
        </mxCell>
        <mxCell id="y2q8YL8v0eIlHlnUZHf5-36" value="《包含》" style="endArrow=open;endSize=12;dashed=1;html=1;exitX=1;exitY=0;exitDx=0;exitDy=0;entryX=0;entryY=0.5;entryDx=0;entryDy=0;" edge="1" parent="1" source="7yP8y3BCbyHduZ2Azp9H-5" target="y2q8YL8v0eIlHlnUZHf5-31">
          <mxGeometry width="160" relative="1" as="geometry">
            <mxPoint x="569.9964068711927" y="260.85786437626894" as="sourcePoint" />
            <mxPoint x="637.5699999999999" y="205" as="targetPoint" />
          </mxGeometry>
        </mxCell>
        <mxCell id="y2q8YL8v0eIlHlnUZHf5-37" value="《包含》" style="endArrow=open;endSize=12;dashed=1;html=1;exitX=1;exitY=1;exitDx=0;exitDy=0;entryX=0;entryY=0.5;entryDx=0;entryDy=0;" edge="1" parent="1" source="7yP8y3BCbyHduZ2Azp9H-5" target="y2q8YL8v0eIlHlnUZHf5-30">
          <mxGeometry width="160" relative="1" as="geometry">
            <mxPoint x="579.9964068711927" y="270.85786437626894" as="sourcePoint" />
            <mxPoint x="647.5699999999999" y="215" as="targetPoint" />
          </mxGeometry>
        </mxCell>
        <mxCell id="y2q8YL8v0eIlHlnUZHf5-39" value="用户" style="text;html=1;strokeColor=none;fillColor=none;align=center;verticalAlign=middle;whiteSpace=wrap;rounded=0;" vertex="1" parent="1">
          <mxGeometry x="90" y="400" width="40" height="20" as="geometry" />
        </mxCell>
        <mxCell id="y2q8YL8v0eIlHlnUZHf5-40" value="开发人员" style="text;html=1;strokeColor=none;fillColor=none;align=center;verticalAlign=middle;whiteSpace=wrap;rounded=0;" vertex="1" parent="1">
          <mxGeometry x="600" y="190" width="50" height="20" as="geometry" />
        </mxCell>
        <mxCell id="y2q8YL8v0eIlHlnUZHf5-44" value="基于Flutter的跨平台社区类app" style="text;html=1;strokeColor=none;fillColor=none;align=center;verticalAlign=middle;whiteSpace=wrap;rounded=0;" vertex="1" parent="1">
          <mxGeometry x="180" y="50" width="180" as="geometry" />
        </mxCell>
        <mxCell id="y2q8YL8v0eIlHlnUZHf5-53" value="" style="shape=folder;fontStyle=1;tabWidth=115;tabHeight=30;tabPosition=left;html=1;boundedLbl=1;" vertex="1" parent="1">
          <mxGeometry x="145" y="740" width="625" height="580" as="geometry" />
        </mxCell>
        <mxCell id="y2q8YL8v0eIlHlnUZHf5-54" value="app开发视图" style="text;html=1;strokeColor=none;fillColor=none;align=center;verticalAlign=middle;whiteSpace=wrap;rounded=0;" vertex="1" parent="1">
          <mxGeometry x="160" y="750" width="80" height="10" as="geometry" />
        </mxCell>
        <mxCell id="y2q8YL8v0eIlHlnUZHf5-56" value="" style="shape=folder;fontStyle=1;tabWidth=96;tabHeight=20;tabPosition=left;html=1;boundedLbl=1;" vertex="1" parent="1">
          <mxGeometry x="164" y="790" width="586" height="90" as="geometry" />
        </mxCell>
        <mxCell id="y2q8YL8v0eIlHlnUZHf5-57" value="视图层" style="text;html=1;strokeColor=none;fillColor=none;align=center;verticalAlign=middle;whiteSpace=wrap;rounded=0;" vertex="1" parent="1">
          <mxGeometry x="190" y="790" width="40" height="20" as="geometry" />
        </mxCell>
        <mxCell id="y2q8YL8v0eIlHlnUZHf5-59" value="FeedWidget" style="rounded=0;whiteSpace=wrap;html=1;" vertex="1" parent="1">
          <mxGeometry x="214" y="830" width="100" height="30" as="geometry" />
        </mxCell>
        <mxCell id="y2q8YL8v0eIlHlnUZHf5-60" value="CreationWidget" style="rounded=0;whiteSpace=wrap;html=1;" vertex="1" parent="1">
          <mxGeometry x="404" y="830" width="106" height="30" as="geometry" />
        </mxCell>
        <mxCell id="y2q8YL8v0eIlHlnUZHf5-61" value="SearchWidget" style="rounded=0;whiteSpace=wrap;html=1;" vertex="1" parent="1">
          <mxGeometry x="600" y="830" width="106" height="30" as="geometry" />
        </mxCell>
        <mxCell id="y2q8YL8v0eIlHlnUZHf5-62" value="" style="shape=folder;fontStyle=1;tabWidth=96;tabHeight=20;tabPosition=left;html=1;boundedLbl=1;" vertex="1" parent="1">
          <mxGeometry x="164" y="890" width="586" height="90" as="geometry" />
        </mxCell>
        <mxCell id="y2q8YL8v0eIlHlnUZHf5-63" value="模型层" style="text;html=1;strokeColor=none;fillColor=none;align=center;verticalAlign=middle;whiteSpace=wrap;rounded=0;" vertex="1" parent="1">
          <mxGeometry x="190" y="890" width="40" height="20" as="geometry" />
        </mxCell>
        <mxCell id="y2q8YL8v0eIlHlnUZHf5-64" value="CommonModel" style="rounded=0;whiteSpace=wrap;html=1;" vertex="1" parent="1">
          <mxGeometry x="170" y="930" width="100" height="30" as="geometry" />
        </mxCell>
        <mxCell id="y2q8YL8v0eIlHlnUZHf5-65" value="UserModel" style="rounded=0;whiteSpace=wrap;html=1;" vertex="1" parent="1">
          <mxGeometry x="290" y="930" width="100" height="30" as="geometry" />
        </mxCell>
        <mxCell id="y2q8YL8v0eIlHlnUZHf5-66" value="PickerModel" style="rounded=0;whiteSpace=wrap;html=1;" vertex="1" parent="1">
          <mxGeometry x="407" y="930" width="100" height="30" as="geometry" />
        </mxCell>
        <mxCell id="y2q8YL8v0eIlHlnUZHf5-67" value="SearchModel" style="rounded=0;whiteSpace=wrap;html=1;" vertex="1" parent="1">
          <mxGeometry x="640" y="930" width="100" height="30" as="geometry" />
        </mxCell>
        <mxCell id="y2q8YL8v0eIlHlnUZHf5-68" value="CreationModel" style="rounded=0;whiteSpace=wrap;html=1;" vertex="1" parent="1">
          <mxGeometry x="523" y="930" width="100" height="30" as="geometry" />
        </mxCell>
        <mxCell id="y2q8YL8v0eIlHlnUZHf5-72" value="" style="shape=folder;fontStyle=1;tabWidth=96;tabHeight=20;tabPosition=left;html=1;boundedLbl=1;" vertex="1" parent="1">
          <mxGeometry x="164" y="990" width="586" height="90" as="geometry" />
        </mxCell>
        <mxCell id="y2q8YL8v0eIlHlnUZHf5-73" value="服务层" style="text;html=1;strokeColor=none;fillColor=none;align=center;verticalAlign=middle;whiteSpace=wrap;rounded=0;" vertex="1" parent="1">
          <mxGeometry x="190" y="990" width="40" height="20" as="geometry" />
        </mxCell>
        <mxCell id="y2q8YL8v0eIlHlnUZHf5-74" value="CommonService" style="rounded=0;whiteSpace=wrap;html=1;" vertex="1" parent="1">
          <mxGeometry x="170" y="1030" width="100" height="30" as="geometry" />
        </mxCell>
        <mxCell id="y2q8YL8v0eIlHlnUZHf5-75" value="UserService" style="rounded=0;whiteSpace=wrap;html=1;" vertex="1" parent="1">
          <mxGeometry x="290" y="1030" width="100" height="30" as="geometry" />
        </mxCell>
        <mxCell id="y2q8YL8v0eIlHlnUZHf5-76" value="CreationSerivce" style="rounded=0;whiteSpace=wrap;html=1;" vertex="1" parent="1">
          <mxGeometry x="407" y="1030" width="100" height="30" as="geometry" />
        </mxCell>
        <mxCell id="y2q8YL8v0eIlHlnUZHf5-77" value="SearchService" style="rounded=0;whiteSpace=wrap;html=1;" vertex="1" parent="1">
          <mxGeometry x="640" y="1030" width="100" height="30" as="geometry" />
        </mxCell>
        <mxCell id="y2q8YL8v0eIlHlnUZHf5-78" value="CreationPublish" style="rounded=0;whiteSpace=wrap;html=1;" vertex="1" parent="1">
          <mxGeometry x="523" y="1030" width="100" height="30" as="geometry" />
        </mxCell>
        <mxCell id="y2q8YL8v0eIlHlnUZHf5-79" value="" style="shape=folder;fontStyle=1;tabWidth=96;tabHeight=20;tabPosition=left;html=1;boundedLbl=1;" vertex="1" parent="1">
          <mxGeometry x="164" y="1100" width="586" height="90" as="geometry" />
        </mxCell>
        <mxCell id="y2q8YL8v0eIlHlnUZHf5-80" value="通信层" style="text;html=1;strokeColor=none;fillColor=none;align=center;verticalAlign=middle;whiteSpace=wrap;rounded=0;" vertex="1" parent="1">
          <mxGeometry x="190" y="1100" width="40" height="20" as="geometry" />
        </mxCell>
        <mxCell id="y2q8YL8v0eIlHlnUZHf5-81" value="ImageChannel" style="rounded=0;whiteSpace=wrap;html=1;" vertex="1" parent="1">
          <mxGeometry x="170" y="1140" width="100" height="30" as="geometry" />
        </mxCell>
        <mxCell id="y2q8YL8v0eIlHlnUZHf5-82" value="PermissonChannel" style="rounded=0;whiteSpace=wrap;html=1;" vertex="1" parent="1">
          <mxGeometry x="290" y="1140" width="100" height="30" as="geometry" />
        </mxCell>
        <mxCell id="y2q8YL8v0eIlHlnUZHf5-83" value="GlobalChannel" style="rounded=0;whiteSpace=wrap;html=1;" vertex="1" parent="1">
          <mxGeometry x="407" y="1140" width="100" height="30" as="geometry" />
        </mxCell>
        <mxCell id="y2q8YL8v0eIlHlnUZHf5-84" value="..." style="rounded=0;whiteSpace=wrap;html=1;" vertex="1" parent="1">
          <mxGeometry x="640" y="1140" width="100" height="30" as="geometry" />
        </mxCell>
        <mxCell id="y2q8YL8v0eIlHlnUZHf5-85" value="CacheChannel" style="rounded=0;whiteSpace=wrap;html=1;" vertex="1" parent="1">
          <mxGeometry x="523" y="1140" width="100" height="30" as="geometry" />
        </mxCell>
        <mxCell id="y2q8YL8v0eIlHlnUZHf5-86" value="" style="shape=folder;fontStyle=1;tabWidth=96;tabHeight=20;tabPosition=left;html=1;boundedLbl=1;" vertex="1" parent="1">
          <mxGeometry x="164.5" y="1210" width="586" height="90" as="geometry" />
        </mxCell>
        <mxCell id="y2q8YL8v0eIlHlnUZHf5-87" value="原生框架层" style="text;html=1;strokeColor=none;fillColor=none;align=center;verticalAlign=middle;whiteSpace=wrap;rounded=0;" vertex="1" parent="1">
          <mxGeometry x="170.5" y="1210" width="80" height="20" as="geometry" />
        </mxCell>
        <mxCell id="y2q8YL8v0eIlHlnUZHf5-88" value="ImageHandler" style="rounded=0;whiteSpace=wrap;html=1;" vertex="1" parent="1">
          <mxGeometry x="170.5" y="1250" width="100" height="30" as="geometry" />
        </mxCell>
        <mxCell id="y2q8YL8v0eIlHlnUZHf5-89" value="PermissionHandler" style="rounded=0;whiteSpace=wrap;html=1;" vertex="1" parent="1">
          <mxGeometry x="290.5" y="1250" width="100" height="30" as="geometry" />
        </mxCell>
        <mxCell id="y2q8YL8v0eIlHlnUZHf5-90" value="GlobalHandler" style="rounded=0;whiteSpace=wrap;html=1;" vertex="1" parent="1">
          <mxGeometry x="407.5" y="1250" width="100" height="30" as="geometry" />
        </mxCell>
        <mxCell id="y2q8YL8v0eIlHlnUZHf5-91" value="..." style="rounded=0;whiteSpace=wrap;html=1;" vertex="1" parent="1">
          <mxGeometry x="640.5" y="1250" width="100" height="30" as="geometry" />
        </mxCell>
        <mxCell id="y2q8YL8v0eIlHlnUZHf5-92" value="CacheHandler" style="rounded=0;whiteSpace=wrap;html=1;" vertex="1" parent="1">
          <mxGeometry x="523.5" y="1250" width="100" height="30" as="geometry" />
        </mxCell>
        <mxCell id="y2q8YL8v0eIlHlnUZHf5-95" value="" style="endArrow=classic;html=1;exitX=0.5;exitY=1;exitDx=0;exitDy=0;exitPerimeter=0;entryX=0.5;entryY=0.222;entryDx=0;entryDy=0;entryPerimeter=0;" edge="1" parent="1" source="y2q8YL8v0eIlHlnUZHf5-56" target="y2q8YL8v0eIlHlnUZHf5-62">
          <mxGeometry width="50" height="50" relative="1" as="geometry">
            <mxPoint x="460" y="750" as="sourcePoint" />
            <mxPoint x="510" y="700" as="targetPoint" />
          </mxGeometry>
        </mxCell>
        <mxCell id="y2q8YL8v0eIlHlnUZHf5-96" value="" style="endArrow=classic;html=1;exitX=0.5;exitY=1;exitDx=0;exitDy=0;exitPerimeter=0;entryX=0.5;entryY=0.228;entryDx=0;entryDy=0;entryPerimeter=0;" edge="1" parent="1" source="y2q8YL8v0eIlHlnUZHf5-62" target="y2q8YL8v0eIlHlnUZHf5-72">
          <mxGeometry width="50" height="50" relative="1" as="geometry">
            <mxPoint x="467" y="890" as="sourcePoint" />
            <mxPoint x="460" y="1010" as="targetPoint" />
          </mxGeometry>
        </mxCell>
        <mxCell id="y2q8YL8v0eIlHlnUZHf5-97" value="" style="endArrow=classic;html=1;exitX=0.5;exitY=1;exitDx=0;exitDy=0;exitPerimeter=0;entryX=0.499;entryY=0.228;entryDx=0;entryDy=0;entryPerimeter=0;" edge="1" parent="1" source="y2q8YL8v0eIlHlnUZHf5-72" target="y2q8YL8v0eIlHlnUZHf5-79">
          <mxGeometry width="50" height="50" relative="1" as="geometry">
            <mxPoint x="467" y="990" as="sourcePoint" />
            <mxPoint x="467" y="1020.52" as="targetPoint" />
          </mxGeometry>
        </mxCell>
        <mxCell id="y2q8YL8v0eIlHlnUZHf5-98" value="" style="endArrow=classic;html=1;exitX=0.5;exitY=1;exitDx=0;exitDy=0;exitPerimeter=0;entryX=0.499;entryY=0.228;entryDx=0;entryDy=0;entryPerimeter=0;" edge="1" parent="1" source="y2q8YL8v0eIlHlnUZHf5-79" target="y2q8YL8v0eIlHlnUZHf5-86">
          <mxGeometry width="50" height="50" relative="1" as="geometry">
            <mxPoint x="477" y="1000" as="sourcePoint" />
            <mxPoint x="477" y="1030.52" as="targetPoint" />
          </mxGeometry>
        </mxCell>
        <mxCell id="y2q8YL8v0eIlHlnUZHf5-99" value="" style="shape=folder;fontStyle=1;tabWidth=115;tabHeight=30;tabPosition=left;html=1;boundedLbl=1;" vertex="1" parent="1">
          <mxGeometry x="144.5" y="1330" width="625.5" height="600" as="geometry" />
        </mxCell>
        <mxCell id="y2q8YL8v0eIlHlnUZHf5-100" value="后台开发视图" style="text;html=1;strokeColor=none;fillColor=none;align=center;verticalAlign=middle;whiteSpace=wrap;rounded=0;" vertex="1" parent="1">
          <mxGeometry x="160" y="1340" width="80" height="10" as="geometry" />
        </mxCell>
        <mxCell id="y2q8YL8v0eIlHlnUZHf5-101" value="" style="shape=folder;fontStyle=1;tabWidth=96;tabHeight=20;tabPosition=left;html=1;boundedLbl=1;" vertex="1" parent="1">
          <mxGeometry x="164.5" y="1370" width="585.5" height="80" as="geometry" />
        </mxCell>
        <mxCell id="y2q8YL8v0eIlHlnUZHf5-102" value="接口层" style="text;html=1;strokeColor=none;fillColor=none;align=center;verticalAlign=middle;whiteSpace=wrap;rounded=0;" vertex="1" parent="1">
          <mxGeometry x="190" y="1370" width="40" height="20" as="geometry" />
        </mxCell>
        <mxCell id="y2q8YL8v0eIlHlnUZHf5-103" value="" style="shape=folder;fontStyle=1;tabWidth=96;tabHeight=20;tabPosition=left;html=1;boundedLbl=1;" vertex="1" parent="1">
          <mxGeometry x="164.5" y="1480" width="585.5" height="140" as="geometry" />
        </mxCell>
        <mxCell id="y2q8YL8v0eIlHlnUZHf5-104" value="服务层" style="text;html=1;strokeColor=none;fillColor=none;align=center;verticalAlign=middle;whiteSpace=wrap;rounded=0;" vertex="1" parent="1">
          <mxGeometry x="190.5" y="1480" width="40" height="20" as="geometry" />
        </mxCell>
        <mxCell id="y2q8YL8v0eIlHlnUZHf5-107" value="StreamApi" style="rounded=0;whiteSpace=wrap;html=1;" vertex="1" parent="1">
          <mxGeometry x="192" y="1410" width="96" height="30" as="geometry" />
        </mxCell>
        <mxCell id="y2q8YL8v0eIlHlnUZHf5-108" value="PublishApi" style="rounded=0;whiteSpace=wrap;html=1;" vertex="1" parent="1">
          <mxGeometry x="411" y="1410" width="96" height="30" as="geometry" />
        </mxCell>
        <mxCell id="y2q8YL8v0eIlHlnUZHf5-109" value="SearchApi" style="rounded=0;whiteSpace=wrap;html=1;" vertex="1" parent="1">
          <mxGeometry x="630" y="1410" width="96" height="30" as="geometry" />
        </mxCell>
        <mxCell id="y2q8YL8v0eIlHlnUZHf5-110" value="common" style="ellipse;shape=cloud;whiteSpace=wrap;html=1;" vertex="1" parent="1">
          <mxGeometry x="1020" y="1080" width="150" height="60" as="geometry" />
        </mxCell>
        <mxCell id="y2q8YL8v0eIlHlnUZHf5-111" value="search" style="ellipse;shape=cloud;whiteSpace=wrap;html=1;" vertex="1" parent="1">
          <mxGeometry x="870" y="1130" width="150" height="60" as="geometry" />
        </mxCell>
        <mxCell id="y2q8YL8v0eIlHlnUZHf5-112" value="creation" style="ellipse;shape=cloud;whiteSpace=wrap;html=1;" vertex="1" parent="1">
          <mxGeometry x="1190" y="1109" width="150" height="60" as="geometry" />
        </mxCell>
        <mxCell id="y2q8YL8v0eIlHlnUZHf5-113" value="feed" style="ellipse;shape=cloud;whiteSpace=wrap;html=1;" vertex="1" parent="1">
          <mxGeometry x="980" y="1000" width="150" height="60" as="geometry" />
        </mxCell>
        <mxCell id="y2q8YL8v0eIlHlnUZHf5-114" value="" style="endArrow=classic;html=1;exitX=0.55;exitY=0.95;exitDx=0;exitDy=0;exitPerimeter=0;entryX=0.4;entryY=0.1;entryDx=0;entryDy=0;entryPerimeter=0;" edge="1" parent="1" source="y2q8YL8v0eIlHlnUZHf5-113" target="y2q8YL8v0eIlHlnUZHf5-110">
          <mxGeometry width="50" height="50" relative="1" as="geometry">
            <mxPoint x="467" y="990" as="sourcePoint" />
            <mxPoint x="467" y="1020.52" as="targetPoint" />
          </mxGeometry>
        </mxCell>
        <mxCell id="y2q8YL8v0eIlHlnUZHf5-115" value="" style="endArrow=classic;html=1;exitX=0.88;exitY=0.25;exitDx=0;exitDy=0;exitPerimeter=0;entryX=0.13;entryY=0.77;entryDx=0;entryDy=0;entryPerimeter=0;" edge="1" parent="1" source="y2q8YL8v0eIlHlnUZHf5-111" target="y2q8YL8v0eIlHlnUZHf5-110">
          <mxGeometry width="50" height="50" relative="1" as="geometry">
            <mxPoint x="1082.5" y="1047" as="sourcePoint" />
            <mxPoint x="1090" y="1096" as="targetPoint" />
          </mxGeometry>
        </mxCell>
        <mxCell id="y2q8YL8v0eIlHlnUZHf5-116" value="" style="endArrow=classic;html=1;exitX=0.07;exitY=0.4;exitDx=0;exitDy=0;exitPerimeter=0;entryX=0.96;entryY=0.7;entryDx=0;entryDy=0;entryPerimeter=0;" edge="1" parent="1" source="y2q8YL8v0eIlHlnUZHf5-112" target="y2q8YL8v0eIlHlnUZHf5-110">
          <mxGeometry width="50" height="50" relative="1" as="geometry">
            <mxPoint x="1140" y="1226.9000000000003" as="sourcePoint" />
            <mxPoint x="1220.5000000000005" y="1213.1" as="targetPoint" />
          </mxGeometry>
        </mxCell>
        <mxCell id="y2q8YL8v0eIlHlnUZHf5-118" value="" style="rounded=0;whiteSpace=wrap;html=1;" vertex="1" parent="1">
          <mxGeometry x="1010" y="125" width="430" height="255" as="geometry" />
        </mxCell>
        <mxCell id="y2q8YL8v0eIlHlnUZHf5-120" value="&lt;span&gt;Flutter Framework&lt;/span&gt;" style="rounded=0;whiteSpace=wrap;html=1;" vertex="1" parent="1">
          <mxGeometry x="1020" y="200" width="410" height="50" as="geometry" />
        </mxCell>
        <mxCell id="y2q8YL8v0eIlHlnUZHf5-121" value="&lt;span&gt;Business （Dart）&lt;/span&gt;" style="rounded=0;whiteSpace=wrap;html=1;" vertex="1" parent="1">
          <mxGeometry x="1020" y="140" width="410" height="50" as="geometry" />
        </mxCell>
        <mxCell id="y2q8YL8v0eIlHlnUZHf5-122" value="&lt;span&gt;Flutter Engine（Extended）&lt;/span&gt;" style="rounded=0;whiteSpace=wrap;html=1;" vertex="1" parent="1">
          <mxGeometry x="1020" y="260" width="410" height="50" as="geometry" />
        </mxCell>
        <mxCell id="y2q8YL8v0eIlHlnUZHf5-123" value="&lt;span&gt;Business（Native）&lt;/span&gt;" style="rounded=0;whiteSpace=wrap;html=1;" vertex="1" parent="1">
          <mxGeometry x="1020" y="322.5" width="410" height="45" as="geometry" />
        </mxCell>
        <mxCell id="y2q8YL8v0eIlHlnUZHf5-132" value="" style="shape=folder;fontStyle=1;tabWidth=90;tabHeight=30;tabPosition=left;html=1;boundedLbl=1;" vertex="1" parent="1">
          <mxGeometry x="180" y="1520" width="220" height="80" as="geometry" />
        </mxCell>
        <mxCell id="y2q8YL8v0eIlHlnUZHf5-133" value="StreamService" style="text;html=1;strokeColor=none;fillColor=none;align=center;verticalAlign=middle;whiteSpace=wrap;rounded=0;" vertex="1" parent="1">
          <mxGeometry x="200.5" y="1520" width="40" height="20" as="geometry" />
        </mxCell>
        <mxCell id="y2q8YL8v0eIlHlnUZHf5-134" value="ugc" style="rounded=0;whiteSpace=wrap;html=1;" vertex="1" parent="1">
          <mxGeometry x="190" y="1560" width="50" height="30" as="geometry" />
        </mxCell>
        <mxCell id="y2q8YL8v0eIlHlnUZHf5-135" value="user" style="rounded=0;whiteSpace=wrap;html=1;" vertex="1" parent="1">
          <mxGeometry x="250.5" y="1560" width="50" height="30" as="geometry" />
        </mxCell>
        <mxCell id="y2q8YL8v0eIlHlnUZHf5-136" value="ad" style="rounded=0;whiteSpace=wrap;html=1;" vertex="1" parent="1">
          <mxGeometry x="314" y="1560" width="50" height="30" as="geometry" />
        </mxCell>
        <mxCell id="y2q8YL8v0eIlHlnUZHf5-139" value="..." style="text;html=1;strokeColor=none;fillColor=none;align=center;verticalAlign=middle;whiteSpace=wrap;rounded=0;" vertex="1" parent="1">
          <mxGeometry x="364" y="1570" width="40" height="20" as="geometry" />
        </mxCell>
        <mxCell id="y2q8YL8v0eIlHlnUZHf5-140" value="" style="shape=folder;fontStyle=1;tabWidth=90;tabHeight=30;tabPosition=left;html=1;boundedLbl=1;" vertex="1" parent="1">
          <mxGeometry x="414" y="1520" width="149.5" height="80" as="geometry" />
        </mxCell>
        <mxCell id="y2q8YL8v0eIlHlnUZHf5-141" value="PublishSerivce" style="text;html=1;strokeColor=none;fillColor=none;align=center;verticalAlign=middle;whiteSpace=wrap;rounded=0;" vertex="1" parent="1">
          <mxGeometry x="442" y="1520" width="40" height="20" as="geometry" />
        </mxCell>
        <mxCell id="y2q8YL8v0eIlHlnUZHf5-142" value="" style="shape=folder;fontStyle=1;tabWidth=90;tabHeight=30;tabPosition=left;html=1;boundedLbl=1;" vertex="1" parent="1">
          <mxGeometry x="580" y="1520" width="170" height="80" as="geometry" />
        </mxCell>
        <mxCell id="y2q8YL8v0eIlHlnUZHf5-143" value="SearchSerivce" style="text;html=1;strokeColor=none;fillColor=none;align=center;verticalAlign=middle;whiteSpace=wrap;rounded=0;" vertex="1" parent="1">
          <mxGeometry x="610" y="1520" width="40" height="20" as="geometry" />
        </mxCell>
        <mxCell id="y2q8YL8v0eIlHlnUZHf5-144" value="coreArticle" style="rounded=0;whiteSpace=wrap;html=1;" vertex="1" parent="1">
          <mxGeometry x="423.25" y="1560" width="58" height="30" as="geometry" />
        </mxCell>
        <mxCell id="y2q8YL8v0eIlHlnUZHf5-145" value="goArticle" style="rounded=0;whiteSpace=wrap;html=1;" vertex="1" parent="1">
          <mxGeometry x="492" y="1560" width="58" height="30" as="geometry" />
        </mxCell>
        <mxCell id="y2q8YL8v0eIlHlnUZHf5-147" value="analyze" style="rounded=0;whiteSpace=wrap;html=1;" vertex="1" parent="1">
          <mxGeometry x="590" y="1560" width="40" height="30" as="geometry" />
        </mxCell>
        <mxCell id="y2q8YL8v0eIlHlnUZHf5-148" value="recall" style="rounded=0;whiteSpace=wrap;html=1;" vertex="1" parent="1">
          <mxGeometry x="636.75" y="1560" width="32.5" height="30" as="geometry" />
        </mxCell>
        <mxCell id="y2q8YL8v0eIlHlnUZHf5-149" value="rank" style="rounded=0;whiteSpace=wrap;html=1;" vertex="1" parent="1">
          <mxGeometry x="676" y="1560" width="28" height="30" as="geometry" />
        </mxCell>
        <mxCell id="y2q8YL8v0eIlHlnUZHf5-150" value="pack" style="rounded=0;whiteSpace=wrap;html=1;" vertex="1" parent="1">
          <mxGeometry x="712" y="1560" width="28" height="30" as="geometry" />
        </mxCell>
        <mxCell id="y2q8YL8v0eIlHlnUZHf5-152" value="" style="shape=folder;fontStyle=1;tabWidth=96;tabHeight=20;tabPosition=left;html=1;boundedLbl=1;" vertex="1" parent="1">
          <mxGeometry x="164" y="1650" width="586" height="90" as="geometry" />
        </mxCell>
        <mxCell id="y2q8YL8v0eIlHlnUZHf5-153" value="系统开发视图" style="text;html=1;strokeColor=none;fillColor=none;align=center;verticalAlign=middle;whiteSpace=wrap;rounded=0;" vertex="1" parent="1">
          <mxGeometry x="30" y="910" width="40" height="20" as="geometry" />
        </mxCell>
        <mxCell id="y2q8YL8v0eIlHlnUZHf5-154" value="数据层" style="text;html=1;strokeColor=none;fillColor=none;align=center;verticalAlign=middle;whiteSpace=wrap;rounded=0;" vertex="1" parent="1">
          <mxGeometry x="195" y="1650" width="40" height="20" as="geometry" />
        </mxCell>
        <mxCell id="y2q8YL8v0eIlHlnUZHf5-155" value="" style="shape=folder;fontStyle=1;tabWidth=96;tabHeight=20;tabPosition=left;html=1;boundedLbl=1;" vertex="1" parent="1">
          <mxGeometry x="164" y="1760" width="586" height="90" as="geometry" />
        </mxCell>
        <mxCell id="y2q8YL8v0eIlHlnUZHf5-156" value="数据库" style="text;html=1;strokeColor=none;fillColor=none;align=center;verticalAlign=middle;whiteSpace=wrap;rounded=0;" vertex="1" parent="1">
          <mxGeometry x="190" y="1754" width="40" height="20" as="geometry" />
        </mxCell>
        <mxCell id="y2q8YL8v0eIlHlnUZHf5-157" value="ElasticSearch API" style="rounded=0;whiteSpace=wrap;html=1;" vertex="1" parent="1">
          <mxGeometry x="190" y="1690" width="180" height="30" as="geometry" />
        </mxCell>
        <mxCell id="y2q8YL8v0eIlHlnUZHf5-158" value="Mybatis" style="rounded=0;whiteSpace=wrap;html=1;" vertex="1" parent="1">
          <mxGeometry x="540" y="1690" width="180" height="30" as="geometry" />
        </mxCell>
        <mxCell id="y2q8YL8v0eIlHlnUZHf5-159" value="ElasticSearch 集群" style="rounded=0;whiteSpace=wrap;html=1;" vertex="1" parent="1">
          <mxGeometry x="185.5" y="1800" width="180" height="30" as="geometry" />
        </mxCell>
        <mxCell id="y2q8YL8v0eIlHlnUZHf5-160" value="MySql" style="rounded=0;whiteSpace=wrap;html=1;" vertex="1" parent="1">
          <mxGeometry x="540" y="1800" width="180" height="30" as="geometry" />
        </mxCell>
        <mxCell id="y2q8YL8v0eIlHlnUZHf5-161" value="" style="rounded=0;whiteSpace=wrap;html=1;" vertex="1" parent="1">
          <mxGeometry x="171" y="1870" width="120" height="60" as="geometry" />
        </mxCell>
      </root>
    </mxGraphModel>
  </diagram>
</mxfile>
